# xmcd
#
# Track frame offsets:
#	150
#	14345
#	28172
#	42497
#	56862
#	68870
#	80547
#	93982
#	108412
#	124470
#	136707
#	152185
#	169897
#	182627
#	195015
#	210322
#	227610
#	242402
#	258360
#	271882
#	286072
#	298935
#
# Disc length: 4173 seconds
#
# Revision: 2
# Processed by: cddbd v1.4PL0 Copyright (c) Steve Scherf et al.
# Submitted via: audiograbber 1.81.01
#
DISCID=36104b16
DTITLE=Various Artists (Corrected) - Slow 'n' Moody, Black 'n' Bluesy
DYEAR=1994
DGENRE=Blues
TTITLE0=Z Z Hill - Nothing Can Change This Love
TTITLE1=Clay Hammond - You Messed Up My Mind
TTITLE2=Little Richard - Directly From My Heart To You
TTITLE3=Terry and The Tyrants - Weep No More
TTITLE4=Jimmy Robbins - It's Real (Part I)
TTITLE5=Jeanette Jones - Darling, I'm Standing By You
TTITLE6=Jackie Day - If I'd Lose You
TTITLE7=Arthur and Mary - Let's Get Together
TTITLE8=Jeb Stuart - Can't Count The Days
TTITLE9=Willie Gauff and The Love Brothers - Whenever I Can't Sleep
TTITLE10=Joe Haywood - The Last One To Know
TTITLE11=Angels Of Joy - Mr President
TTITLE12=Yvonne Baker - A Woman Needs A Man
TTITLE13=Tammi Young - I Don't Wanna Lose You
TTITLE14=Mary Love - Baby I'll Come Right Away
TTITLE15=Little Henry and The Shamrocks - (Baby) Come To Me
TTITLE16=Willie Gauff and The Love Brothers - Farewell
TTITLE17=Tommy Youngblood - Why Should I Be The One?
TTITLE18=Johnny Copeland - Every Dog's Got His Day
TTITLE19=The Mighty Hannibal - I'll Come Back To You
TTITLE20=Stacy Johnson - Consider Yourself
TTITLE21=B B King - Ain't Nobody's Business
EXTD=Virgin Records 41401\n© 1994
EXTT0=
EXTT1=
EXTT2=
EXTT3=
EXTT4=
EXTT5=
EXTT6=
EXTT7=
EXTT8=
EXTT9=
EXTT10=
EXTT11=
EXTT12=
EXTT13=
EXTT14=
EXTT15=
EXTT16=
EXTT17=
EXTT18=
EXTT19=
EXTT20=
EXTT21=
PLAYORDER=
